<svg width="411" height="321" viewBox="0 0 411 321" fill="none" xmlns="http://www.w3.org/2000/svg">
<rect width="411" height="321" rx="12" fill="#474747"/>
<rect width="311" height="197" transform="translate(50 50)" fill="#474747"/>
<path d="M59.24 73.288C57.544 73.288 56.088 72.928 54.872 72.208C53.656 71.472 52.72 70.456 52.064 69.16C51.408 67.848 51.08 66.336 51.08 64.624C51.08 62.912 51.408 61.4 52.064 60.088C52.72 58.776 53.656 57.752 54.872 57.016C56.088 56.28 57.544 55.912 59.24 55.912C61.256 55.912 62.904 56.416 64.184 57.424C65.48 58.416 66.288 59.816 66.608 61.624H63.224C63.016 60.712 62.568 60 61.88 59.488C61.208 58.96 60.312 58.696 59.192 58.696C57.64 58.696 56.424 59.224 55.544 60.28C54.664 61.336 54.224 62.784 54.224 64.624C54.224 66.464 54.664 67.912 55.544 68.968C56.424 70.008 57.64 70.528 59.192 70.528C60.312 70.528 61.208 70.288 61.88 69.808C62.568 69.312 63.016 68.632 63.224 67.768H66.608C66.288 69.496 65.48 70.848 64.184 71.824C62.904 72.8 61.256 73.288 59.24 73.288ZM74.2473 73.288C73.0953 73.288 72.0553 73.024 71.1273 72.496C70.2153 71.968 69.4873 71.24 68.9433 70.312C68.4153 69.368 68.1513 68.28 68.1513 67.048C68.1513 65.816 68.4233 64.736 68.9673 63.808C69.5113 62.864 70.2393 62.128 71.1513 61.6C72.0793 61.072 73.1193 60.808 74.2713 60.808C75.4073 60.808 76.4313 61.072 77.3433 61.6C78.2713 62.128 78.9993 62.864 79.5273 63.808C80.0713 64.736 80.3433 65.816 80.3433 67.048C80.3433 68.28 80.0713 69.368 79.5273 70.312C78.9993 71.24 78.2713 71.968 77.3433 72.496C76.4153 73.024 75.3833 73.288 74.2473 73.288ZM74.2473 70.624C75.0473 70.624 75.7433 70.328 76.3353 69.736C76.9273 69.128 77.2233 68.232 77.2233 67.048C77.2233 65.864 76.9273 64.976 76.3353 64.384C75.7433 63.776 75.0553 63.472 74.2713 63.472C73.4553 63.472 72.7513 63.776 72.1593 64.384C71.5833 64.976 71.2953 65.864 71.2953 67.048C71.2953 68.232 71.5833 69.128 72.1593 69.736C72.7513 70.328 73.4473 70.624 74.2473 70.624ZM82.37 73V61.096H85.082L85.346 62.704C85.73 62.128 86.234 61.672 86.858 61.336C87.498 60.984 88.234 60.808 89.066 60.808C90.906 60.808 92.21 61.52 92.978 62.944C93.41 62.288 93.986 61.768 94.706 61.384C95.442 61 96.242 60.808 97.106 60.808C98.658 60.808 99.85 61.272 100.682 62.2C101.514 63.128 101.93 64.488 101.93 66.28V73H98.858V66.568C98.858 65.544 98.658 64.76 98.258 64.216C97.874 63.672 97.274 63.4 96.458 63.4C95.626 63.4 94.954 63.704 94.442 64.312C93.946 64.92 93.698 65.768 93.698 66.856V73H90.626V66.568C90.626 65.544 90.426 64.76 90.026 64.216C89.626 63.672 89.01 63.4 88.178 63.4C87.362 63.4 86.698 63.704 86.186 64.312C85.69 64.92 85.442 65.768 85.442 66.856V73H82.37ZM109.911 73.288C108.711 73.288 107.647 73.032 106.719 72.52C105.791 72.008 105.063 71.288 104.535 70.36C104.007 69.432 103.743 68.36 103.743 67.144C103.743 65.912 103.999 64.816 104.511 63.856C105.039 62.896 105.759 62.152 106.671 61.624C107.599 61.08 108.687 60.808 109.935 60.808C111.103 60.808 112.135 61.064 113.031 61.576C113.927 62.088 114.623 62.792 115.119 63.688C115.631 64.568 115.887 65.552 115.887 66.64C115.887 66.816 115.879 67 115.863 67.192C115.863 67.384 115.855 67.584 115.839 67.792H106.791C106.855 68.72 107.175 69.448 107.751 69.976C108.343 70.504 109.055 70.768 109.887 70.768C110.511 70.768 111.031 70.632 111.447 70.36C111.879 70.072 112.199 69.704 112.407 69.256H115.527C115.303 70.008 114.927 70.696 114.399 71.32C113.887 71.928 113.247 72.408 112.479 72.76C111.727 73.112 110.871 73.288 109.911 73.288ZM109.935 63.304C109.183 63.304 108.519 63.52 107.943 63.952C107.367 64.368 106.999 65.008 106.839 65.872H112.767C112.719 65.088 112.431 64.464 111.903 64C111.375 63.536 110.719 63.304 109.935 63.304ZM126.853 73.288C125.829 73.288 124.989 73.128 124.333 72.808C123.677 72.472 123.189 72.032 122.869 71.488C122.549 70.944 122.389 70.344 122.389 69.688C122.389 68.584 122.821 67.688 123.685 67C124.549 66.312 125.845 65.968 127.573 65.968H130.597V65.68C130.597 64.864 130.365 64.264 129.901 63.88C129.437 63.496 128.861 63.304 128.173 63.304C127.549 63.304 127.005 63.456 126.541 63.76C126.077 64.048 125.789 64.48 125.677 65.056H122.677C122.757 64.192 123.045 63.44 123.541 62.8C124.053 62.16 124.709 61.672 125.509 61.336C126.309 60.984 127.205 60.808 128.197 60.808C129.893 60.808 131.229 61.232 132.205 62.08C133.181 62.928 133.669 64.128 133.669 65.68V73H131.053L130.765 71.08C130.413 71.72 129.917 72.248 129.277 72.664C128.653 73.08 127.845 73.288 126.853 73.288ZM127.549 70.888C128.429 70.888 129.109 70.6 129.589 70.024C130.085 69.448 130.397 68.736 130.525 67.888H127.909C127.093 67.888 126.509 68.04 126.157 68.344C125.805 68.632 125.629 68.992 125.629 69.424C125.629 69.888 125.805 70.248 126.157 70.504C126.509 70.76 126.973 70.888 127.549 70.888ZM135.881 73V61.096H138.593L138.833 63.112C139.201 62.408 139.729 61.848 140.417 61.432C141.121 61.016 141.945 60.808 142.889 60.808C144.361 60.808 145.505 61.272 146.321 62.2C147.137 63.128 147.545 64.488 147.545 66.28V73H144.473V66.568C144.473 65.544 144.265 64.76 143.849 64.216C143.433 63.672 142.785 63.4 141.905 63.4C141.041 63.4 140.329 63.704 139.769 64.312C139.225 64.92 138.953 65.768 138.953 66.856V73H135.881ZM155.234 73.288C154.114 73.288 153.114 73.016 152.234 72.472C151.354 71.928 150.658 71.184 150.146 70.24C149.634 69.296 149.378 68.224 149.378 67.024C149.378 65.824 149.634 64.76 150.146 63.832C150.658 62.888 151.354 62.152 152.234 61.624C153.114 61.08 154.114 60.808 155.234 60.808C156.13 60.808 156.914 60.976 157.586 61.312C158.258 61.648 158.802 62.12 159.218 62.728V55.72H162.29V73H159.554L159.218 71.296C158.834 71.824 158.322 72.288 157.682 72.688C157.058 73.088 156.242 73.288 155.234 73.288ZM155.882 70.6C156.874 70.6 157.682 70.272 158.306 69.616C158.946 68.944 159.266 68.088 159.266 67.048C159.266 66.008 158.946 65.16 158.306 64.504C157.682 63.832 156.874 63.496 155.882 63.496C154.906 63.496 154.098 63.824 153.458 64.48C152.818 65.136 152.498 65.984 152.498 67.024C152.498 68.064 152.818 68.92 153.458 69.592C154.098 70.264 154.906 70.6 155.882 70.6ZM172.913 73L168.545 61.096H171.761L174.785 70.096L177.809 61.096H181.025L176.633 73H172.913ZM183.899 59.248C183.339 59.248 182.875 59.08 182.507 58.744C182.155 58.408 181.979 57.984 181.979 57.472C181.979 56.96 182.155 56.544 182.507 56.224C182.875 55.888 183.339 55.72 183.899 55.72C184.459 55.72 184.915 55.888 185.267 56.224C185.635 56.544 185.819 56.96 185.819 57.472C185.819 57.984 185.635 58.408 185.267 58.744C184.915 59.08 184.459 59.248 183.899 59.248ZM182.363 73V61.096H185.435V73H182.363ZM192.841 73.288C191.785 73.288 190.857 73.12 190.057 72.784C189.257 72.432 188.617 71.952 188.137 71.344C187.657 70.736 187.369 70.032 187.273 69.232H190.369C190.465 69.696 190.721 70.096 191.137 70.432C191.569 70.752 192.121 70.912 192.793 70.912C193.465 70.912 193.953 70.776 194.257 70.504C194.577 70.232 194.737 69.92 194.737 69.568C194.737 69.056 194.513 68.712 194.065 68.536C193.617 68.344 192.993 68.16 192.193 67.984C191.681 67.872 191.161 67.736 190.633 67.576C190.105 67.416 189.617 67.216 189.169 66.976C188.737 66.72 188.385 66.4 188.113 66.016C187.841 65.616 187.705 65.128 187.705 64.552C187.705 63.496 188.121 62.608 188.953 61.888C189.801 61.168 190.985 60.808 192.505 60.808C193.913 60.808 195.033 61.136 195.865 61.792C196.713 62.448 197.217 63.352 197.377 64.504H194.473C194.297 63.624 193.633 63.184 192.481 63.184C191.905 63.184 191.457 63.296 191.137 63.52C190.833 63.744 190.681 64.024 190.681 64.36C190.681 64.712 190.913 64.992 191.377 65.2C191.841 65.408 192.457 65.6 193.225 65.776C194.057 65.968 194.817 66.184 195.505 66.424C196.209 66.648 196.769 66.992 197.185 67.456C197.601 67.904 197.809 68.552 197.809 69.4C197.825 70.136 197.633 70.8 197.233 71.392C196.833 71.984 196.257 72.448 195.505 72.784C194.753 73.12 193.865 73.288 192.841 73.288ZM201.467 59.248C200.907 59.248 200.443 59.08 200.075 58.744C199.723 58.408 199.547 57.984 199.547 57.472C199.547 56.96 199.723 56.544 200.075 56.224C200.443 55.888 200.907 55.72 201.467 55.72C202.027 55.72 202.483 55.888 202.835 56.224C203.203 56.544 203.387 56.96 203.387 57.472C203.387 57.984 203.203 58.408 202.835 58.744C202.483 59.08 202.027 59.248 201.467 59.248ZM199.931 73V61.096H203.003V73H199.931ZM210.793 73C209.545 73 208.545 72.696 207.793 72.088C207.041 71.48 206.665 70.4 206.665 68.848V63.664H204.625V61.096H206.665L207.025 57.904H209.737V61.096H212.953V63.664H209.737V68.872C209.737 69.448 209.857 69.848 210.097 70.072C210.353 70.28 210.785 70.384 211.393 70.384H212.881V73H210.793ZM224.333 73.288C222.845 73.288 221.693 72.824 220.877 71.896C220.077 70.968 219.677 69.608 219.677 67.816V61.096H222.725V67.528C222.725 68.552 222.933 69.336 223.349 69.88C223.765 70.424 224.421 70.696 225.317 70.696C226.165 70.696 226.861 70.392 227.405 69.784C227.965 69.176 228.245 68.328 228.245 67.24V61.096H231.317V73H228.605L228.365 70.984C227.997 71.688 227.461 72.248 226.757 72.664C226.069 73.08 225.261 73.288 224.333 73.288ZM238.671 73.288C237.615 73.288 236.687 73.12 235.887 72.784C235.087 72.432 234.447 71.952 233.967 71.344C233.487 70.736 233.199 70.032 233.103 69.232H236.199C236.295 69.696 236.551 70.096 236.967 70.432C237.399 70.752 237.951 70.912 238.623 70.912C239.295 70.912 239.783 70.776 240.087 70.504C240.407 70.232 240.567 69.92 240.567 69.568C240.567 69.056 240.343 68.712 239.895 68.536C239.447 68.344 238.823 68.16 238.023 67.984C237.511 67.872 236.991 67.736 236.463 67.576C235.935 67.416 235.447 67.216 234.999 66.976C234.567 66.72 234.215 66.4 233.943 66.016C233.671 65.616 233.535 65.128 233.535 64.552C233.535 63.496 233.951 62.608 234.783 61.888C235.631 61.168 236.815 60.808 238.335 60.808C239.743 60.808 240.863 61.136 241.695 61.792C242.543 62.448 243.047 63.352 243.207 64.504H240.303C240.127 63.624 239.463 63.184 238.311 63.184C237.735 63.184 237.287 63.296 236.967 63.52C236.663 63.744 236.511 64.024 236.511 64.36C236.511 64.712 236.743 64.992 237.207 65.2C237.671 65.408 238.287 65.6 239.055 65.776C239.887 65.968 240.647 66.184 241.335 66.424C242.039 66.648 242.599 66.992 243.015 67.456C243.431 67.904 243.639 68.552 243.639 69.4C243.655 70.136 243.463 70.8 243.063 71.392C242.663 71.984 242.087 72.448 241.335 72.784C240.583 73.12 239.695 73.288 238.671 73.288Z" fill="white"/>
<path d="M53 130C53 128.895 53.8954 128 55 128H58.2792C58.7097 128 59.0918 128.275 59.2279 128.684L60.7257 133.177C60.8831 133.649 60.6694 134.165 60.2243 134.388L57.967 135.516C59.0692 137.961 61.0388 139.931 63.4835 141.033L64.6121 138.776C64.8347 138.331 65.3507 138.117 65.8228 138.274L70.3162 139.772C70.7246 139.908 71 140.29 71 140.721V144C71 145.105 70.1046 146 69 146H68C59.7157 146 53 139.284 53 131V130Z" stroke="white" stroke-width="2" stroke-linecap="round" stroke-linejoin="round"/>
<path d="M97.792 140.848V133.872H98.992V140.848H97.792ZM94.736 137.92V136.784H102.048V137.92H94.736ZM103.805 142V141.056C104.573 140.459 105.298 139.856 105.981 139.248C106.664 138.64 107.272 138.037 107.805 137.44C108.338 136.832 108.754 136.24 109.053 135.664C109.362 135.088 109.517 134.533 109.517 134C109.517 133.605 109.448 133.243 109.309 132.912C109.17 132.571 108.952 132.293 108.653 132.08C108.354 131.867 107.944 131.76 107.421 131.76C106.93 131.76 106.514 131.872 106.173 132.096C105.842 132.309 105.592 132.597 105.421 132.96C105.261 133.312 105.181 133.701 105.181 134.128H103.885C103.896 133.392 104.056 132.763 104.365 132.24C104.674 131.707 105.096 131.301 105.629 131.024C106.162 130.747 106.765 130.608 107.437 130.608C108.109 130.608 108.701 130.736 109.213 130.992C109.725 131.237 110.125 131.605 110.413 132.096C110.712 132.587 110.861 133.205 110.861 133.952C110.861 134.475 110.754 134.997 110.541 135.52C110.328 136.043 110.04 136.555 109.677 137.056C109.314 137.547 108.909 138.021 108.461 138.48C108.024 138.939 107.57 139.371 107.101 139.776C106.642 140.181 106.205 140.549 105.789 140.88H111.245V142H103.805ZM117.348 142.192C116.366 142.192 115.518 141.952 114.804 141.472C114.1 140.981 113.556 140.304 113.172 139.44C112.788 138.565 112.596 137.552 112.596 136.4C112.596 135.248 112.788 134.24 113.172 133.376C113.556 132.501 114.1 131.824 114.804 131.344C115.508 130.853 116.356 130.608 117.348 130.608C118.329 130.608 119.166 130.853 119.86 131.344C120.564 131.824 121.102 132.501 121.476 133.376C121.86 134.24 122.052 135.248 122.052 136.4C122.052 137.552 121.86 138.565 121.476 139.44C121.102 140.304 120.564 140.981 119.86 141.472C119.166 141.952 118.329 142.192 117.348 142.192ZM117.332 141.008C117.982 141.008 118.558 140.827 119.06 140.464C119.561 140.091 119.956 139.563 120.244 138.88C120.532 138.187 120.676 137.36 120.676 136.4C120.676 135.44 120.532 134.619 120.244 133.936C119.956 133.243 119.561 132.715 119.06 132.352C118.558 131.989 117.982 131.808 117.332 131.808C116.692 131.808 116.116 131.989 115.604 132.352C115.102 132.715 114.702 133.243 114.404 133.936C114.116 134.619 113.972 135.44 113.972 136.4C113.972 137.36 114.116 138.187 114.404 138.88C114.702 139.563 115.102 140.091 115.604 140.464C116.116 140.827 116.692 141.008 117.332 141.008ZM123.981 137.856V136.72H130.317V137.856H123.981ZM133.869 142V132.304L131.965 132.768V131.824L134.317 130.8H135.229V142H133.869ZM138.822 142V132.304L136.918 132.768V131.824L139.27 130.8H140.182V142H138.822ZM143.775 142V132.304L141.871 132.768V131.824L144.223 130.8H145.135V142H143.775ZM147.496 137.856V136.72H153.832V137.856H147.496ZM159.672 142.192C158.958 142.192 158.307 142.064 157.72 141.808C157.144 141.541 156.686 141.147 156.344 140.624C156.003 140.101 155.822 139.451 155.8 138.672H157.16C157.171 139.099 157.272 139.493 157.464 139.856C157.667 140.208 157.955 140.491 158.328 140.704C158.702 140.917 159.15 141.024 159.672 141.024C160.195 141.024 160.632 140.923 160.984 140.72C161.336 140.517 161.603 140.251 161.784 139.92C161.966 139.579 162.056 139.2 162.056 138.784C162.056 138.261 161.928 137.84 161.672 137.52C161.427 137.189 161.091 136.944 160.664 136.784C160.248 136.624 159.79 136.544 159.288 136.544H158.456V135.408H159.288C160.024 135.408 160.595 135.243 161 134.912C161.416 134.571 161.624 134.101 161.624 133.504C161.624 133.013 161.459 132.603 161.128 132.272C160.808 131.941 160.323 131.776 159.672 131.776C159.043 131.776 158.542 131.957 158.168 132.32C157.795 132.683 157.582 133.147 157.528 133.712H156.168C156.2 133.104 156.366 132.565 156.664 132.096C156.963 131.627 157.368 131.264 157.88 131.008C158.392 130.741 158.99 130.608 159.672 130.608C160.398 130.608 161.006 130.736 161.496 130.992C161.987 131.248 162.355 131.589 162.6 132.016C162.856 132.443 162.984 132.912 162.984 133.424C162.984 133.797 162.915 134.155 162.776 134.496C162.638 134.837 162.43 135.136 162.152 135.392C161.886 135.637 161.539 135.813 161.112 135.92C161.55 136.005 161.939 136.176 162.28 136.432C162.632 136.677 162.91 136.997 163.112 137.392C163.315 137.787 163.416 138.251 163.416 138.784C163.416 139.392 163.272 139.957 162.984 140.48C162.707 140.992 162.291 141.408 161.736 141.728C161.182 142.037 160.494 142.192 159.672 142.192ZM169.11 142.192C168.395 142.192 167.745 142.064 167.158 141.808C166.582 141.541 166.123 141.147 165.782 140.624C165.441 140.101 165.259 139.451 165.238 138.672H166.598C166.609 139.099 166.71 139.493 166.902 139.856C167.105 140.208 167.393 140.491 167.766 140.704C168.139 140.917 168.587 141.024 169.11 141.024C169.633 141.024 170.07 140.923 170.422 140.72C170.774 140.517 171.041 140.251 171.222 139.92C171.403 139.579 171.494 139.2 171.494 138.784C171.494 138.261 171.366 137.84 171.11 137.52C170.865 137.189 170.529 136.944 170.102 136.784C169.686 136.624 169.227 136.544 168.726 136.544H167.894V135.408H168.726C169.462 135.408 170.033 135.243 170.438 134.912C170.854 134.571 171.062 134.101 171.062 133.504C171.062 133.013 170.897 132.603 170.566 132.272C170.246 131.941 169.761 131.776 169.11 131.776C168.481 131.776 167.979 131.957 167.606 132.32C167.233 132.683 167.019 133.147 166.966 133.712H165.606C165.638 133.104 165.803 132.565 166.102 132.096C166.401 131.627 166.806 131.264 167.318 131.008C167.83 130.741 168.427 130.608 169.11 130.608C169.835 130.608 170.443 130.736 170.934 130.992C171.425 131.248 171.793 131.589 172.038 132.016C172.294 132.443 172.422 132.912 172.422 133.424C172.422 133.797 172.353 134.155 172.214 134.496C172.075 134.837 171.867 135.136 171.59 135.392C171.323 135.637 170.977 135.813 170.55 135.92C170.987 136.005 171.377 136.176 171.718 136.432C172.07 136.677 172.347 136.997 172.55 137.392C172.753 137.787 172.854 138.251 172.854 138.784C172.854 139.392 172.71 139.957 172.422 140.48C172.145 140.992 171.729 141.408 171.174 141.728C170.619 142.037 169.931 142.192 169.11 142.192ZM178.835 142.192C178.078 142.192 177.417 142.053 176.851 141.776C176.286 141.499 175.838 141.12 175.507 140.64C175.187 140.16 174.985 139.616 174.899 139.008H176.211C176.339 139.616 176.633 140.107 177.091 140.48C177.55 140.853 178.137 141.04 178.851 141.04C179.385 141.04 179.838 140.917 180.211 140.672C180.595 140.416 180.889 140.08 181.091 139.664C181.305 139.237 181.411 138.763 181.411 138.24C181.411 137.685 181.305 137.205 181.091 136.8C180.889 136.384 180.595 136.059 180.211 135.824C179.838 135.589 179.406 135.472 178.915 135.472C178.297 135.472 177.769 135.605 177.331 135.872C176.905 136.139 176.59 136.485 176.387 136.912H175.091L176.035 130.8H181.939V131.968H177.075L176.435 135.392C176.702 135.083 177.059 134.832 177.507 134.64C177.955 134.437 178.473 134.336 179.059 134.336C179.603 134.336 180.099 134.437 180.547 134.64C180.995 134.832 181.379 135.104 181.699 135.456C182.03 135.808 182.281 136.219 182.451 136.688C182.622 137.157 182.707 137.669 182.707 138.224C182.707 138.757 182.622 139.264 182.451 139.744C182.281 140.224 182.025 140.651 181.683 141.024C181.353 141.387 180.947 141.675 180.467 141.888C179.998 142.091 179.454 142.192 178.835 142.192ZM184.809 137.856V136.72H191.145V137.856H184.809ZM198.569 142V139.6H192.889V138.56L198.329 130.8H199.897V138.416H201.561V139.6H199.897V142H198.569ZM194.377 138.416H198.633V132.288L194.377 138.416ZM208.288 142V139.6H202.608V138.56L208.048 130.8H209.616V138.416H211.28V139.6H209.616V142H208.288ZM204.096 138.416H208.352V132.288L204.096 138.416ZM213.926 142L218.31 131.952H212.166V130.8H219.686V131.808L215.35 142H213.926ZM224.88 142.192C224.154 142.192 223.498 142.059 222.912 141.792C222.336 141.515 221.877 141.136 221.536 140.656C221.205 140.165 221.04 139.6 221.04 138.96C221.04 138.501 221.13 138.075 221.312 137.68C221.493 137.285 221.744 136.944 222.064 136.656C222.394 136.357 222.773 136.149 223.2 136.032C222.602 135.819 222.138 135.488 221.808 135.04C221.488 134.592 221.328 134.107 221.328 133.584C221.328 133.029 221.466 132.528 221.744 132.08C222.032 131.632 222.442 131.275 222.976 131.008C223.509 130.741 224.144 130.608 224.88 130.608C225.626 130.608 226.261 130.741 226.784 131.008C227.317 131.275 227.728 131.632 228.016 132.08C228.304 132.528 228.448 133.029 228.448 133.584C228.448 134.107 228.282 134.592 227.952 135.04C227.632 135.488 227.168 135.819 226.56 136.032C227.008 136.149 227.392 136.357 227.712 136.656C228.032 136.944 228.282 137.285 228.464 137.68C228.645 138.075 228.736 138.501 228.736 138.96C228.736 139.6 228.565 140.165 228.224 140.656C227.882 141.136 227.424 141.515 226.848 141.792C226.272 142.059 225.616 142.192 224.88 142.192ZM224.88 141.008C225.722 141.008 226.352 140.816 226.768 140.432C227.184 140.037 227.392 139.52 227.392 138.88C227.392 138.155 227.162 137.605 226.704 137.232C226.256 136.859 225.648 136.672 224.88 136.672C224.122 136.672 223.514 136.859 223.056 137.232C222.608 137.605 222.384 138.155 222.384 138.88C222.384 139.52 222.592 140.037 223.008 140.432C223.424 140.816 224.048 141.008 224.88 141.008ZM224.88 135.552C225.562 135.552 226.101 135.376 226.496 135.024C226.89 134.672 227.088 134.219 227.088 133.664C227.088 133.035 226.89 132.56 226.496 132.24C226.112 131.92 225.573 131.76 224.88 131.76C224.208 131.76 223.674 131.92 223.28 132.24C222.896 132.56 222.704 133.035 222.704 133.664C222.704 134.219 222.896 134.672 223.28 135.024C223.674 135.376 224.208 135.552 224.88 135.552Z" fill="#F9F9F7"/>
<path d="M53 182L60.8906 187.26C61.5624 187.708 62.4376 187.708 63.1094 187.26L71 182M55 193H69C70.1046 193 71 192.105 71 191V181C71 179.895 70.1046 179 69 179H55C53.8954 179 53 179.895 53 181V191C53 192.105 53.8954 193 55 193Z" stroke="white" stroke-width="2" stroke-linecap="round" stroke-linejoin="round"/>
<path d="M95.2 191V179.8H99.136C99.9253 179.8 100.576 179.928 101.088 180.184C101.611 180.429 102 180.771 102.256 181.208C102.512 181.635 102.64 182.115 102.64 182.648C102.64 183.224 102.512 183.704 102.256 184.088C102.011 184.472 101.685 184.765 101.28 184.968C100.885 185.171 100.464 185.293 100.016 185.336L100.24 185.176C100.72 185.187 101.163 185.315 101.568 185.56C101.973 185.805 102.293 186.136 102.528 186.552C102.773 186.968 102.896 187.432 102.896 187.944C102.896 188.509 102.757 189.027 102.48 189.496C102.203 189.955 101.792 190.323 101.248 190.6C100.715 190.867 100.053 191 99.264 191H95.2ZM96.544 189.88H99.12C99.8773 189.88 100.464 189.704 100.88 189.352C101.307 188.989 101.52 188.488 101.52 187.848C101.52 187.219 101.301 186.717 100.864 186.344C100.437 185.96 99.8453 185.768 99.088 185.768H96.544V189.88ZM96.544 184.696H99.04C99.7653 184.696 100.315 184.525 100.688 184.184C101.072 183.843 101.264 183.379 101.264 182.792C101.264 182.227 101.072 181.773 100.688 181.432C100.315 181.091 99.7493 180.92 98.992 180.92H96.544V184.696ZM104.889 191V182.968H106.233V191H104.889ZM105.561 181.24C105.294 181.24 105.07 181.155 104.889 180.984C104.718 180.803 104.633 180.579 104.633 180.312C104.633 180.045 104.718 179.832 104.889 179.672C105.07 179.501 105.294 179.416 105.561 179.416C105.817 179.416 106.035 179.501 106.217 179.672C106.398 179.832 106.489 180.045 106.489 180.312C106.489 180.579 106.398 180.803 106.217 180.984C106.035 181.155 105.817 181.24 105.561 181.24ZM111.613 191.192C110.962 191.192 110.386 191.085 109.885 190.872C109.383 190.648 108.983 190.333 108.685 189.928C108.397 189.523 108.215 189.048 108.141 188.504H109.517C109.581 188.781 109.698 189.043 109.869 189.288C110.039 189.523 110.269 189.709 110.557 189.848C110.855 189.987 111.213 190.056 111.629 190.056C112.013 190.056 112.327 190.003 112.573 189.896C112.818 189.779 112.999 189.624 113.117 189.432C113.234 189.24 113.293 189.032 113.293 188.808C113.293 188.488 113.213 188.243 113.053 188.072C112.903 187.901 112.679 187.768 112.381 187.672C112.082 187.565 111.725 187.475 111.309 187.4C110.957 187.336 110.61 187.251 110.269 187.144C109.938 187.037 109.639 186.899 109.373 186.728C109.106 186.557 108.893 186.344 108.733 186.088C108.573 185.821 108.493 185.507 108.493 185.144C108.493 184.685 108.61 184.28 108.845 183.928C109.09 183.565 109.426 183.283 109.853 183.08C110.29 182.877 110.807 182.776 111.405 182.776C112.258 182.776 112.951 182.984 113.485 183.4C114.029 183.816 114.343 184.419 114.429 185.208H113.101C113.058 184.803 112.887 184.488 112.589 184.264C112.29 184.029 111.89 183.912 111.389 183.912C110.887 183.912 110.503 184.013 110.237 184.216C109.981 184.419 109.853 184.685 109.853 185.016C109.853 185.229 109.922 185.416 110.061 185.576C110.21 185.736 110.429 185.875 110.717 185.992C111.005 186.099 111.351 186.195 111.757 186.28C112.279 186.376 112.759 186.504 113.197 186.664C113.634 186.824 113.986 187.059 114.253 187.368C114.53 187.677 114.669 188.12 114.669 188.696C114.679 189.197 114.557 189.635 114.301 190.008C114.055 190.381 113.703 190.675 113.245 190.888C112.786 191.091 112.242 191.192 111.613 191.192ZM119.413 191C118.933 191 118.517 190.925 118.165 190.776C117.813 190.627 117.541 190.376 117.349 190.024C117.167 189.661 117.077 189.176 117.077 188.568V184.104H115.685V182.968H117.077L117.253 181.032H118.421V182.968H120.773V184.104H118.421V188.568C118.421 189.069 118.522 189.411 118.725 189.592C118.927 189.763 119.285 189.848 119.797 189.848H120.661V191H119.413ZM122.495 191V182.968H123.711L123.823 184.504C124.004 184.141 124.233 183.832 124.511 183.576C124.799 183.32 125.14 183.123 125.535 182.984C125.929 182.845 126.377 182.776 126.879 182.776V184.184H126.415C126.073 184.184 125.748 184.232 125.439 184.328C125.129 184.413 124.852 184.557 124.607 184.76C124.372 184.952 124.185 185.224 124.047 185.576C123.908 185.928 123.839 186.36 123.839 186.872V191H122.495ZM131.704 191.192C130.958 191.192 130.286 191.021 129.688 190.68C129.091 190.328 128.616 189.837 128.264 189.208C127.923 188.579 127.752 187.837 127.752 186.984C127.752 186.131 127.928 185.389 128.28 184.76C128.632 184.131 129.107 183.645 129.704 183.304C130.312 182.952 130.99 182.776 131.736 182.776C132.494 182.776 133.171 182.952 133.768 183.304C134.366 183.645 134.835 184.131 135.176 184.76C135.518 185.389 135.688 186.131 135.688 186.984C135.688 187.837 135.512 188.579 135.16 189.208C134.819 189.837 134.344 190.328 133.736 190.68C133.139 191.021 132.462 191.192 131.704 191.192ZM131.704 190.04C132.174 190.04 132.606 189.928 133 189.704C133.395 189.469 133.71 189.128 133.944 188.68C134.19 188.221 134.312 187.656 134.312 186.984C134.312 186.301 134.195 185.736 133.96 185.288C133.726 184.84 133.411 184.504 133.016 184.28C132.622 184.045 132.195 183.928 131.736 183.928C131.288 183.928 130.862 184.045 130.456 184.28C130.062 184.504 129.742 184.84 129.496 185.288C129.251 185.736 129.128 186.301 129.128 186.984C129.128 187.656 129.251 188.221 129.496 188.68C129.742 189.128 130.056 189.469 130.44 189.704C130.835 189.928 131.256 190.04 131.704 190.04ZM137.669 191V179.8H141.605C142.394 179.8 143.045 179.928 143.557 180.184C144.079 180.429 144.469 180.771 144.725 181.208C144.981 181.635 145.109 182.115 145.109 182.648C145.109 183.224 144.981 183.704 144.725 184.088C144.479 184.472 144.154 184.765 143.749 184.968C143.354 185.171 142.933 185.293 142.485 185.336L142.709 185.176C143.189 185.187 143.631 185.315 144.037 185.56C144.442 185.805 144.762 186.136 144.997 186.552C145.242 186.968 145.365 187.432 145.365 187.944C145.365 188.509 145.226 189.027 144.949 189.496C144.671 189.955 144.261 190.323 143.717 190.6C143.183 190.867 142.522 191 141.733 191H137.669ZM139.013 189.88H141.589C142.346 189.88 142.933 189.704 143.349 189.352C143.775 188.989 143.989 188.488 143.989 187.848C143.989 187.219 143.77 186.717 143.333 186.344C142.906 185.96 142.314 185.768 141.557 185.768H139.013V189.88ZM139.013 184.696H141.509C142.234 184.696 142.783 184.525 143.157 184.184C143.541 183.843 143.733 183.379 143.733 182.792C143.733 182.227 143.541 181.773 143.157 181.432C142.783 181.091 142.218 180.92 141.461 180.92H139.013V184.696ZM147.213 191V179.48H148.557V191H147.213ZM150.92 191V182.968H152.264V191H150.92ZM151.592 181.24C151.325 181.24 151.101 181.155 150.92 180.984C150.749 180.803 150.664 180.579 150.664 180.312C150.664 180.045 150.749 179.832 150.92 179.672C151.101 179.501 151.325 179.416 151.592 179.416C151.848 179.416 152.067 179.501 152.248 179.672C152.429 179.832 152.52 180.045 152.52 180.312C152.52 180.579 152.429 180.803 152.248 180.984C152.067 181.155 151.848 181.24 151.592 181.24ZM157.644 191.192C156.993 191.192 156.417 191.085 155.916 190.872C155.415 190.648 155.015 190.333 154.716 189.928C154.428 189.523 154.247 189.048 154.172 188.504H155.548C155.612 188.781 155.729 189.043 155.9 189.288C156.071 189.523 156.3 189.709 156.588 189.848C156.887 189.987 157.244 190.056 157.66 190.056C158.044 190.056 158.359 190.003 158.604 189.896C158.849 189.779 159.031 189.624 159.148 189.432C159.265 189.24 159.324 189.032 159.324 188.808C159.324 188.488 159.244 188.243 159.084 188.072C158.935 187.901 158.711 187.768 158.412 187.672C158.113 187.565 157.756 187.475 157.34 187.4C156.988 187.336 156.641 187.251 156.3 187.144C155.969 187.037 155.671 186.899 155.404 186.728C155.137 186.557 154.924 186.344 154.764 186.088C154.604 185.821 154.524 185.507 154.524 185.144C154.524 184.685 154.641 184.28 154.876 183.928C155.121 183.565 155.457 183.283 155.884 183.08C156.321 182.877 156.839 182.776 157.436 182.776C158.289 182.776 158.983 182.984 159.516 183.4C160.06 183.816 160.375 184.419 160.46 185.208H159.132C159.089 184.803 158.919 184.488 158.62 184.264C158.321 184.029 157.921 183.912 157.42 183.912C156.919 183.912 156.535 184.013 156.268 184.216C156.012 184.419 155.884 184.685 155.884 185.016C155.884 185.229 155.953 185.416 156.092 185.576C156.241 185.736 156.46 185.875 156.748 185.992C157.036 186.099 157.383 186.195 157.788 186.28C158.311 186.376 158.791 186.504 159.228 186.664C159.665 186.824 160.017 187.059 160.284 187.368C160.561 187.677 160.7 188.12 160.7 188.696C160.711 189.197 160.588 189.635 160.332 190.008C160.087 190.381 159.735 190.675 159.276 190.888C158.817 191.091 158.273 191.192 157.644 191.192ZM165.675 191.192C165.025 191.192 164.449 191.085 163.947 190.872C163.446 190.648 163.046 190.333 162.747 189.928C162.459 189.523 162.278 189.048 162.203 188.504H163.579C163.643 188.781 163.761 189.043 163.931 189.288C164.102 189.523 164.331 189.709 164.619 189.848C164.918 189.987 165.275 190.056 165.691 190.056C166.075 190.056 166.39 190.003 166.635 189.896C166.881 189.779 167.062 189.624 167.179 189.432C167.297 189.24 167.355 189.032 167.355 188.808C167.355 188.488 167.275 188.243 167.115 188.072C166.966 187.901 166.742 187.768 166.443 187.672C166.145 187.565 165.787 187.475 165.371 187.4C165.019 187.336 164.673 187.251 164.331 187.144C164.001 187.037 163.702 186.899 163.435 186.728C163.169 186.557 162.955 186.344 162.795 186.088C162.635 185.821 162.555 185.507 162.555 185.144C162.555 184.685 162.673 184.28 162.907 183.928C163.153 183.565 163.489 183.283 163.915 183.08C164.353 182.877 164.87 182.776 165.467 182.776C166.321 182.776 167.014 182.984 167.547 183.4C168.091 183.816 168.406 184.419 168.491 185.208H167.163C167.121 184.803 166.95 184.488 166.651 184.264C166.353 184.029 165.953 183.912 165.451 183.912C164.95 183.912 164.566 184.013 164.299 184.216C164.043 184.419 163.915 184.685 163.915 185.016C163.915 185.229 163.985 185.416 164.123 185.576C164.273 185.736 164.491 185.875 164.779 185.992C165.067 186.099 165.414 186.195 165.819 186.28C166.342 186.376 166.822 186.504 167.259 186.664C167.697 186.824 168.049 187.059 168.315 187.368C168.593 187.677 168.731 188.12 168.731 188.696C168.742 189.197 168.619 189.635 168.363 190.008C168.118 190.381 167.766 190.675 167.307 190.888C166.849 191.091 166.305 191.192 165.675 191.192ZM176.459 194.184C175.328 194.184 174.336 193.96 173.483 193.512C172.629 193.075 171.963 192.445 171.483 191.624C171.013 190.813 170.779 189.859 170.779 188.76C170.779 187.629 170.971 186.584 171.355 185.624C171.739 184.653 172.277 183.805 172.971 183.08C173.675 182.344 174.501 181.773 175.451 181.368C176.411 180.963 177.472 180.76 178.635 180.76C179.819 180.76 180.843 180.989 181.707 181.448C182.581 181.896 183.259 182.525 183.739 183.336C184.219 184.136 184.459 185.069 184.459 186.136C184.459 186.755 184.384 187.357 184.235 187.944C184.096 188.531 183.877 189.064 183.579 189.544C183.291 190.013 182.939 190.392 182.523 190.68C182.107 190.957 181.627 191.096 181.083 191.096C180.443 191.096 179.979 190.899 179.691 190.504C179.413 190.109 179.312 189.603 179.387 188.984L179.435 188.44L179.707 188.92C179.451 189.592 179.029 190.125 178.443 190.52C177.867 190.904 177.232 191.096 176.539 191.096C175.749 191.096 175.125 190.851 174.667 190.36C174.219 189.869 173.995 189.203 173.995 188.36C173.995 187.773 174.085 187.213 174.266 186.68C174.459 186.147 174.72 185.672 175.051 185.256C175.392 184.829 175.792 184.493 176.251 184.248C176.72 184.003 177.243 183.88 177.819 183.88C178.469 183.88 178.987 184.056 179.371 184.408C179.755 184.76 179.979 185.267 180.043 185.928L179.723 186.136L180.091 184.056H181.227L180.427 188.632C180.352 189.091 180.373 189.464 180.491 189.752C180.619 190.029 180.88 190.168 181.275 190.168C181.627 190.168 181.931 190.045 182.187 189.8C182.443 189.555 182.656 189.235 182.827 188.84C183.008 188.445 183.141 188.019 183.227 187.56C183.323 187.091 183.371 186.637 183.371 186.2C183.371 185.261 183.173 184.461 182.779 183.8C182.384 183.128 181.819 182.611 181.083 182.248C180.357 181.885 179.493 181.704 178.491 181.704C177.52 181.704 176.629 181.885 175.819 182.248C175.019 182.6 174.32 183.096 173.723 183.736C173.136 184.365 172.677 185.101 172.347 185.944C172.027 186.776 171.867 187.677 171.867 188.648C171.867 189.619 172.059 190.445 172.443 191.128C172.837 191.811 173.397 192.328 174.123 192.68C174.848 193.043 175.707 193.224 176.699 193.224C177.157 193.224 177.616 193.176 178.075 193.08C178.533 192.995 178.96 192.861 179.355 192.68L179.579 193.592C179.099 193.795 178.592 193.944 178.059 194.04C177.536 194.136 177.003 194.184 176.459 194.184ZM176.939 190.072C177.397 190.072 177.813 189.949 178.187 189.704C178.56 189.459 178.869 189.123 179.115 188.696C179.36 188.259 179.509 187.757 179.562 187.192C179.616 186.765 179.584 186.381 179.467 186.04C179.36 185.699 179.168 185.427 178.891 185.224C178.624 185.011 178.277 184.904 177.851 184.904C177.435 184.904 177.067 185 176.747 185.192C176.427 185.373 176.155 185.619 175.931 185.928C175.707 186.237 175.531 186.589 175.403 186.984C175.285 187.368 175.227 187.763 175.227 188.168C175.227 188.733 175.371 189.192 175.659 189.544C175.947 189.896 176.373 190.072 176.939 190.072ZM186.776 191V182.968H187.992L188.104 184.504C188.285 184.141 188.515 183.832 188.792 183.576C189.08 183.32 189.421 183.123 189.816 182.984C190.211 182.845 190.659 182.776 191.16 182.776V184.184H190.696C190.355 184.184 190.029 184.232 189.72 184.328C189.411 184.413 189.133 184.557 188.888 184.76C188.653 184.952 188.467 185.224 188.328 185.576C188.189 185.928 188.12 186.36 188.12 186.872V191H186.776ZM195.922 191.192C195.175 191.192 194.508 191.016 193.922 190.664C193.335 190.312 192.871 189.821 192.53 189.192C192.199 188.563 192.034 187.827 192.034 186.984C192.034 186.131 192.199 185.395 192.53 184.776C192.86 184.147 193.319 183.656 193.906 183.304C194.503 182.952 195.186 182.776 195.954 182.776C196.743 182.776 197.415 182.952 197.97 183.304C198.524 183.656 198.946 184.115 199.234 184.68C199.532 185.245 199.682 185.869 199.682 186.552C199.682 186.659 199.682 186.771 199.682 186.888C199.682 187.005 199.676 187.139 199.666 187.288H193.042V186.248H198.354C198.322 185.512 198.076 184.941 197.618 184.536C197.17 184.12 196.604 183.912 195.922 183.912C195.474 183.912 195.052 184.019 194.658 184.232C194.263 184.435 193.943 184.733 193.698 185.128C193.463 185.523 193.346 186.019 193.346 186.616V187.064C193.346 187.725 193.468 188.28 193.714 188.728C193.959 189.165 194.274 189.496 194.658 189.72C195.052 189.944 195.474 190.056 195.922 190.056C196.487 190.056 196.951 189.933 197.314 189.688C197.687 189.432 197.959 189.085 198.13 188.648H199.458C199.319 189.139 199.09 189.576 198.77 189.96C198.45 190.333 198.05 190.632 197.57 190.856C197.1 191.08 196.551 191.192 195.922 191.192ZM204.503 191.192C203.853 191.192 203.277 191.085 202.775 190.872C202.274 190.648 201.874 190.333 201.575 189.928C201.287 189.523 201.106 189.048 201.031 188.504H202.407C202.471 188.781 202.589 189.043 202.759 189.288C202.93 189.523 203.159 189.709 203.447 189.848C203.746 189.987 204.103 190.056 204.519 190.056C204.903 190.056 205.218 190.003 205.463 189.896C205.709 189.779 205.89 189.624 206.007 189.432C206.125 189.24 206.183 189.032 206.183 188.808C206.183 188.488 206.103 188.243 205.943 188.072C205.794 187.901 205.57 187.768 205.271 187.672C204.973 187.565 204.615 187.475 204.199 187.4C203.847 187.336 203.501 187.251 203.159 187.144C202.829 187.037 202.53 186.899 202.263 186.728C201.997 186.557 201.783 186.344 201.623 186.088C201.463 185.821 201.383 185.507 201.383 185.144C201.383 184.685 201.501 184.28 201.735 183.928C201.981 183.565 202.317 183.283 202.743 183.08C203.181 182.877 203.698 182.776 204.295 182.776C205.149 182.776 205.842 182.984 206.375 183.4C206.919 183.816 207.234 184.419 207.319 185.208H205.991C205.949 184.803 205.778 184.488 205.479 184.264C205.181 184.029 204.781 183.912 204.279 183.912C203.778 183.912 203.394 184.013 203.127 184.216C202.871 184.419 202.743 184.685 202.743 185.016C202.743 185.229 202.813 185.416 202.951 185.576C203.101 185.736 203.319 185.875 203.607 185.992C203.895 186.099 204.242 186.195 204.647 186.28C205.17 186.376 205.65 186.504 206.087 186.664C206.525 186.824 206.877 187.059 207.143 187.368C207.421 187.677 207.559 188.12 207.559 188.696C207.57 189.197 207.447 189.635 207.191 190.008C206.946 190.381 206.594 190.675 206.135 190.888C205.677 191.091 205.133 191.192 204.503 191.192ZM212.303 191C211.823 191 211.407 190.925 211.055 190.776C210.703 190.627 210.431 190.376 210.239 190.024C210.058 189.661 209.967 189.176 209.967 188.568V184.104H208.575V182.968H209.967L210.143 181.032H211.311V182.968H213.663V184.104H211.311V188.568C211.311 189.069 211.413 189.411 211.615 189.592C211.818 189.763 212.175 189.848 212.687 189.848H213.551V191H212.303ZM218.025 191.192C217.375 191.192 216.831 191.08 216.393 190.856C215.956 190.621 215.631 190.317 215.417 189.944C215.204 189.56 215.097 189.149 215.097 188.712C215.097 188.168 215.236 187.709 215.513 187.336C215.801 186.952 216.201 186.664 216.713 186.472C217.236 186.269 217.844 186.168 218.537 186.168H220.681C220.681 185.667 220.601 185.251 220.441 184.92C220.292 184.589 220.068 184.339 219.769 184.168C219.471 183.997 219.108 183.912 218.681 183.912C218.169 183.912 217.727 184.04 217.353 184.296C216.98 184.552 216.751 184.931 216.665 185.432H215.289C215.353 184.856 215.545 184.376 215.865 183.992C216.196 183.597 216.612 183.299 217.113 183.096C217.615 182.883 218.137 182.776 218.681 182.776C219.428 182.776 220.047 182.915 220.537 183.192C221.028 183.459 221.396 183.837 221.641 184.328C221.897 184.808 222.025 185.373 222.025 186.024V191H220.825L220.745 189.576C220.639 189.8 220.5 190.013 220.329 190.216C220.169 190.408 219.977 190.579 219.753 190.728C219.54 190.867 219.289 190.979 219.001 191.064C218.713 191.149 218.388 191.192 218.025 191.192ZM218.233 190.056C218.607 190.056 218.943 189.981 219.241 189.832C219.551 189.672 219.812 189.459 220.025 189.192C220.239 188.925 220.399 188.627 220.505 188.296C220.623 187.955 220.681 187.608 220.681 187.256V187.208H218.649C218.137 187.208 217.721 187.272 217.401 187.4C217.081 187.517 216.852 187.688 216.713 187.912C216.575 188.125 216.505 188.371 216.505 188.648C216.505 188.936 216.569 189.187 216.697 189.4C216.836 189.603 217.033 189.763 217.289 189.88C217.545 189.997 217.86 190.056 218.233 190.056ZM227.016 191.192C226.398 191.192 225.854 191.069 225.384 190.824C224.926 190.579 224.568 190.2 224.312 189.688C224.067 189.176 223.944 188.531 223.944 187.752V182.968H225.288V187.608C225.288 188.419 225.464 189.027 225.816 189.432C226.168 189.837 226.67 190.04 227.32 190.04C227.768 190.04 228.174 189.933 228.536 189.72C228.899 189.496 229.182 189.176 229.384 188.76C229.598 188.344 229.704 187.837 229.704 187.24V182.968H231.048V191H229.832L229.752 189.592C229.496 190.093 229.128 190.488 228.648 190.776C228.168 191.053 227.624 191.192 227.016 191.192ZM233.26 191V182.968H234.476L234.588 184.504C234.77 184.141 234.999 183.832 235.276 183.576C235.564 183.32 235.906 183.123 236.3 182.984C236.695 182.845 237.143 182.776 237.644 182.776V184.184H237.18C236.839 184.184 236.514 184.232 236.204 184.328C235.895 184.413 235.618 184.557 235.372 184.76C235.138 184.952 234.951 185.224 234.812 185.576C234.674 185.928 234.604 186.36 234.604 186.872V191H233.26ZM241.791 191.192C241.14 191.192 240.596 191.08 240.159 190.856C239.722 190.621 239.396 190.317 239.183 189.944C238.97 189.56 238.863 189.149 238.863 188.712C238.863 188.168 239.002 187.709 239.279 187.336C239.567 186.952 239.967 186.664 240.479 186.472C241.002 186.269 241.61 186.168 242.303 186.168H244.447C244.447 185.667 244.367 185.251 244.207 184.92C244.058 184.589 243.834 184.339 243.535 184.168C243.236 183.997 242.874 183.912 242.447 183.912C241.935 183.912 241.492 184.04 241.119 184.296C240.746 184.552 240.516 184.931 240.431 185.432H239.055C239.119 184.856 239.311 184.376 239.631 183.992C239.962 183.597 240.378 183.299 240.879 183.096C241.38 182.883 241.903 182.776 242.447 182.776C243.194 182.776 243.812 182.915 244.303 183.192C244.794 183.459 245.162 183.837 245.407 184.328C245.663 184.808 245.791 185.373 245.791 186.024V191H244.591L244.511 189.576C244.404 189.8 244.266 190.013 244.095 190.216C243.935 190.408 243.743 190.579 243.519 190.728C243.306 190.867 243.055 190.979 242.767 191.064C242.479 191.149 242.154 191.192 241.791 191.192ZM241.999 190.056C242.372 190.056 242.708 189.981 243.007 189.832C243.316 189.672 243.578 189.459 243.791 189.192C244.004 188.925 244.164 188.627 244.271 188.296C244.388 187.955 244.447 187.608 244.447 187.256V187.208H242.415C241.903 187.208 241.487 187.272 241.167 187.4C240.847 187.517 240.618 187.688 240.479 187.912C240.34 188.125 240.271 188.371 240.271 188.648C240.271 188.936 240.335 189.187 240.463 189.4C240.602 189.603 240.799 189.763 241.055 189.88C241.311 189.997 241.626 190.056 241.999 190.056ZM247.854 191V182.968H249.07L249.15 184.376C249.406 183.875 249.769 183.485 250.238 183.208C250.718 182.92 251.262 182.776 251.87 182.776C252.499 182.776 253.043 182.899 253.502 183.144C253.961 183.389 254.318 183.768 254.574 184.28C254.83 184.792 254.958 185.437 254.958 186.216V191H253.614V186.36C253.614 185.549 253.438 184.941 253.086 184.536C252.734 184.131 252.227 183.928 251.566 183.928C251.118 183.928 250.713 184.04 250.35 184.264C249.998 184.477 249.715 184.792 249.502 185.208C249.299 185.624 249.198 186.131 249.198 186.728V191H247.854ZM260.194 191C259.714 191 259.298 190.925 258.946 190.776C258.594 190.627 258.322 190.376 258.13 190.024C257.949 189.661 257.858 189.176 257.858 188.568V184.104H256.466V182.968H257.858L258.034 181.032H259.202V182.968H261.554V184.104H259.202V188.568C259.202 189.069 259.303 189.411 259.506 189.592C259.709 189.763 260.066 189.848 260.578 189.848H261.442V191H260.194ZM263.756 191.08C263.489 191.08 263.265 190.995 263.084 190.824C262.913 190.643 262.828 190.424 262.828 190.168C262.828 189.912 262.913 189.699 263.084 189.528C263.265 189.347 263.489 189.256 263.756 189.256C264.023 189.256 264.241 189.347 264.412 189.528C264.583 189.699 264.668 189.912 264.668 190.168C264.668 190.424 264.583 190.643 264.412 190.824C264.241 190.995 264.023 191.08 263.756 191.08ZM270.096 191.192C269.338 191.192 268.656 191.016 268.048 190.664C267.45 190.312 266.976 189.821 266.624 189.192C266.282 188.563 266.112 187.827 266.112 186.984C266.112 186.141 266.282 185.405 266.624 184.776C266.976 184.147 267.45 183.656 268.048 183.304C268.656 182.952 269.338 182.776 270.096 182.776C271.056 182.776 271.856 183.027 272.496 183.528C273.136 184.019 273.541 184.68 273.712 185.512H272.336C272.229 185.011 271.968 184.621 271.552 184.344C271.136 184.067 270.645 183.928 270.08 183.928C269.621 183.928 269.194 184.045 268.8 184.28C268.416 184.504 268.101 184.845 267.856 185.304C267.61 185.752 267.488 186.312 267.488 186.984C267.488 187.485 267.557 187.928 267.696 188.312C267.845 188.696 268.037 189.021 268.272 189.288C268.506 189.544 268.778 189.736 269.088 189.864C269.408 189.992 269.738 190.056 270.08 190.056C270.464 190.056 270.81 189.997 271.12 189.88C271.429 189.752 271.69 189.571 271.904 189.336C272.117 189.091 272.261 188.797 272.336 188.456H273.712C273.541 189.277 273.13 189.939 272.48 190.44C271.84 190.941 271.045 191.192 270.096 191.192ZM279.204 191.192C278.458 191.192 277.786 191.021 277.188 190.68C276.591 190.328 276.116 189.837 275.764 189.208C275.423 188.579 275.252 187.837 275.252 186.984C275.252 186.131 275.428 185.389 275.78 184.76C276.132 184.131 276.607 183.645 277.204 183.304C277.812 182.952 278.49 182.776 279.236 182.776C279.994 182.776 280.671 182.952 281.268 183.304C281.866 183.645 282.335 184.131 282.676 184.76C283.018 185.389 283.188 186.131 283.188 186.984C283.188 187.837 283.012 188.579 282.66 189.208C282.319 189.837 281.844 190.328 281.236 190.68C280.639 191.021 279.962 191.192 279.204 191.192ZM279.204 190.04C279.674 190.04 280.106 189.928 280.5 189.704C280.895 189.469 281.21 189.128 281.444 188.68C281.69 188.221 281.812 187.656 281.812 186.984C281.812 186.301 281.695 185.736 281.46 185.288C281.226 184.84 280.911 184.504 280.516 184.28C280.122 184.045 279.695 183.928 279.236 183.928C278.788 183.928 278.362 184.045 277.956 184.28C277.562 184.504 277.242 184.84 276.996 185.288C276.751 185.736 276.628 186.301 276.628 186.984C276.628 187.656 276.751 188.221 276.996 188.68C277.242 189.128 277.556 189.469 277.94 189.704C278.335 189.928 278.756 190.04 279.204 190.04ZM285.073 191V182.968H286.289L286.385 184.12C286.641 183.693 286.982 183.363 287.409 183.128C287.835 182.893 288.31 182.776 288.833 182.776C289.249 182.776 289.627 182.835 289.969 182.952C290.31 183.059 290.609 183.229 290.865 183.464C291.121 183.688 291.329 183.976 291.489 184.328C291.766 183.837 292.145 183.459 292.625 183.192C293.115 182.915 293.638 182.776 294.193 182.776C294.811 182.776 295.35 182.904 295.809 183.16C296.278 183.405 296.641 183.784 296.897 184.296C297.153 184.797 297.281 185.437 297.281 186.216V191H295.953V186.36C295.953 185.549 295.787 184.941 295.457 184.536C295.126 184.131 294.657 183.928 294.049 183.928C293.633 183.928 293.254 184.04 292.913 184.264C292.582 184.477 292.321 184.792 292.129 185.208C291.947 185.624 291.857 186.136 291.857 186.744V191H290.513V186.36C290.513 185.549 290.347 184.941 290.017 184.536C289.686 184.131 289.217 183.928 288.609 183.928C288.203 183.928 287.83 184.04 287.489 184.264C287.158 184.477 286.897 184.792 286.705 185.208C286.513 185.624 286.417 186.136 286.417 186.744V191H285.073Z" fill="#F9F9F7"/>
<path d="M67.6569 239.657C66.7202 240.593 64.7616 242.552 63.4138 243.9C62.6327 244.681 61.3677 244.681 60.5866 243.9C59.2623 242.576 57.3416 240.655 56.3431 239.657C53.219 236.533 53.219 231.467 56.3431 228.343C59.4673 225.219 64.5327 225.219 67.6569 228.343C70.781 231.467 70.781 236.533 67.6569 239.657Z" stroke="white" stroke-width="2" stroke-linecap="round" stroke-linejoin="round"/>
<path d="M65 234C65 235.657 63.6569 237 62 237C60.3431 237 59 235.657 59 234C59 232.343 60.3431 231 62 231C63.6569 231 65 232.343 65 234Z" stroke="white" stroke-width="2" stroke-linecap="round" stroke-linejoin="round"/>
<path d="M96.4 240V230.304L94.496 230.768V229.824L96.848 228.8H97.76V240H96.4ZM99.9611 240V239.056C100.729 238.459 101.454 237.856 102.137 237.248C102.82 236.64 103.428 236.037 103.961 235.44C104.494 234.832 104.91 234.24 105.209 233.664C105.518 233.088 105.673 232.533 105.673 232C105.673 231.605 105.604 231.243 105.465 230.912C105.326 230.571 105.108 230.293 104.809 230.08C104.51 229.867 104.1 229.76 103.577 229.76C103.086 229.76 102.67 229.872 102.329 230.096C101.998 230.309 101.748 230.597 101.577 230.96C101.417 231.312 101.337 231.701 101.337 232.128H100.041C100.052 231.392 100.212 230.763 100.521 230.24C100.83 229.707 101.252 229.301 101.785 229.024C102.318 228.747 102.921 228.608 103.593 228.608C104.265 228.608 104.857 228.736 105.369 228.992C105.881 229.237 106.281 229.605 106.569 230.096C106.868 230.587 107.017 231.205 107.017 231.952C107.017 232.475 106.91 232.997 106.697 233.52C106.484 234.043 106.196 234.555 105.833 235.056C105.47 235.547 105.065 236.021 104.617 236.48C104.18 236.939 103.726 237.371 103.257 237.776C102.798 238.181 102.361 238.549 101.945 238.88H107.401V240H99.9611ZM112.844 240.192C112.13 240.192 111.479 240.064 110.892 239.808C110.316 239.541 109.858 239.147 109.516 238.624C109.175 238.101 108.994 237.451 108.972 236.672H110.332C110.343 237.099 110.444 237.493 110.636 237.856C110.839 238.208 111.127 238.491 111.5 238.704C111.874 238.917 112.322 239.024 112.844 239.024C113.367 239.024 113.804 238.923 114.156 238.72C114.508 238.517 114.775 238.251 114.956 237.92C115.138 237.579 115.228 237.2 115.228 236.784C115.228 236.261 115.1 235.84 114.844 235.52C114.599 235.189 114.263 234.944 113.836 234.784C113.42 234.624 112.962 234.544 112.46 234.544H111.628V233.408H112.46C113.196 233.408 113.767 233.243 114.172 232.912C114.588 232.571 114.796 232.101 114.796 231.504C114.796 231.013 114.631 230.603 114.3 230.272C113.98 229.941 113.495 229.776 112.844 229.776C112.215 229.776 111.714 229.957 111.34 230.32C110.967 230.683 110.754 231.147 110.7 231.712H109.34C109.372 231.104 109.538 230.565 109.836 230.096C110.135 229.627 110.54 229.264 111.052 229.008C111.564 228.741 112.162 228.608 112.844 228.608C113.57 228.608 114.178 228.736 114.668 228.992C115.159 229.248 115.527 229.589 115.772 230.016C116.028 230.443 116.156 230.912 116.156 231.424C116.156 231.797 116.087 232.155 115.948 232.496C115.81 232.837 115.602 233.136 115.324 233.392C115.058 233.637 114.711 233.813 114.284 233.92C114.722 234.005 115.111 234.176 115.452 234.432C115.804 234.677 116.082 234.997 116.284 235.392C116.487 235.787 116.588 236.251 116.588 236.784C116.588 237.392 116.444 237.957 116.156 238.48C115.879 238.992 115.463 239.408 114.908 239.728C114.354 240.037 113.666 240.192 112.844 240.192ZM123.044 240V228.8H124.388L130.356 237.776V228.8H131.7V240H130.356L124.388 231.024V240H123.044ZM134.139 240V231.968H135.483V240H134.139ZM134.811 230.24C134.544 230.24 134.32 230.155 134.139 229.984C133.968 229.803 133.883 229.579 133.883 229.312C133.883 229.045 133.968 228.832 134.139 228.672C134.32 228.501 134.544 228.416 134.811 228.416C135.067 228.416 135.285 228.501 135.467 228.672C135.648 228.832 135.739 229.045 135.739 229.312C135.739 229.579 135.648 229.803 135.467 229.984C135.285 230.155 135.067 230.24 134.811 230.24ZM137.823 240V228.48H139.167V240H137.823ZM144.937 240.192C144.191 240.192 143.524 240.016 142.937 239.664C142.351 239.312 141.887 238.821 141.545 238.192C141.215 237.563 141.049 236.827 141.049 235.984C141.049 235.131 141.215 234.395 141.545 233.776C141.876 233.147 142.335 232.656 142.921 232.304C143.519 231.952 144.201 231.776 144.969 231.776C145.759 231.776 146.431 231.952 146.985 232.304C147.54 232.656 147.961 233.115 148.249 233.68C148.548 234.245 148.697 234.869 148.697 235.552C148.697 235.659 148.697 235.771 148.697 235.888C148.697 236.005 148.692 236.139 148.681 236.288H142.057V235.248H147.369C147.337 234.512 147.092 233.941 146.633 233.536C146.185 233.12 145.62 232.912 144.937 232.912C144.489 232.912 144.068 233.019 143.673 233.232C143.279 233.435 142.959 233.733 142.713 234.128C142.479 234.523 142.361 235.019 142.361 235.616V236.064C142.361 236.725 142.484 237.28 142.729 237.728C142.975 238.165 143.289 238.496 143.673 238.72C144.068 238.944 144.489 239.056 144.937 239.056C145.503 239.056 145.967 238.933 146.329 238.688C146.703 238.432 146.975 238.085 147.145 237.648H148.473C148.335 238.139 148.105 238.576 147.785 238.96C147.465 239.333 147.065 239.632 146.585 239.856C146.116 240.08 145.567 240.192 144.937 240.192ZM158.393 240.192C157.572 240.192 156.857 240.043 156.249 239.744C155.641 239.445 155.172 239.029 154.841 238.496C154.51 237.963 154.345 237.344 154.345 236.64H155.753C155.753 237.077 155.854 237.483 156.057 237.856C156.26 238.219 156.553 238.512 156.937 238.736C157.332 238.949 157.817 239.056 158.393 239.056C158.894 239.056 159.321 238.976 159.673 238.816C160.036 238.645 160.308 238.416 160.489 238.128C160.681 237.84 160.777 237.515 160.777 237.152C160.777 236.715 160.681 236.363 160.489 236.096C160.297 235.819 160.041 235.595 159.721 235.424C159.401 235.253 159.033 235.104 158.617 234.976C158.201 234.837 157.758 234.688 157.289 234.528C156.414 234.229 155.769 233.861 155.353 233.424C154.937 232.976 154.729 232.395 154.729 231.68C154.729 231.072 154.868 230.539 155.145 230.08C155.433 229.621 155.838 229.264 156.361 229.008C156.894 228.741 157.524 228.608 158.249 228.608C158.964 228.608 159.582 228.741 160.105 229.008C160.638 229.275 161.054 229.643 161.353 230.112C161.652 230.571 161.801 231.104 161.801 231.712H160.393C160.393 231.403 160.313 231.099 160.153 230.8C159.993 230.501 159.748 230.256 159.417 230.064C159.097 229.861 158.692 229.76 158.201 229.76C157.796 229.749 157.433 229.819 157.113 229.968C156.804 230.107 156.558 230.309 156.377 230.576C156.206 230.843 156.121 231.168 156.121 231.552C156.121 231.915 156.196 232.208 156.345 232.432C156.505 232.656 156.729 232.848 157.017 233.008C157.316 233.157 157.662 233.296 158.057 233.424C158.452 233.552 158.889 233.696 159.369 233.856C159.913 234.037 160.393 234.261 160.809 234.528C161.236 234.784 161.566 235.115 161.801 235.52C162.046 235.925 162.169 236.443 162.169 237.072C162.169 237.605 162.025 238.112 161.737 238.592C161.46 239.061 161.044 239.445 160.489 239.744C159.934 240.043 159.236 240.192 158.393 240.192ZM167.178 240C166.698 240 166.282 239.925 165.93 239.776C165.578 239.627 165.306 239.376 165.114 239.024C164.933 238.661 164.842 238.176 164.842 237.568V233.104H163.45V231.968H164.842L165.018 230.032H166.186V231.968H168.538V233.104H166.186V237.568C166.186 238.069 166.288 238.411 166.49 238.592C166.693 238.763 167.05 238.848 167.562 238.848H168.426V240H167.178ZM170.26 240V231.968H171.476L171.588 233.504C171.77 233.141 171.999 232.832 172.276 232.576C172.564 232.32 172.906 232.123 173.3 231.984C173.695 231.845 174.143 231.776 174.644 231.776V233.184H174.18C173.839 233.184 173.514 233.232 173.204 233.328C172.895 233.413 172.618 233.557 172.372 233.76C172.138 233.952 171.951 234.224 171.812 234.576C171.674 234.928 171.604 235.36 171.604 235.872V240H170.26ZM179.406 240.192C178.659 240.192 177.993 240.016 177.406 239.664C176.819 239.312 176.355 238.821 176.014 238.192C175.683 237.563 175.518 236.827 175.518 235.984C175.518 235.131 175.683 234.395 176.014 233.776C176.345 233.147 176.803 232.656 177.39 232.304C177.987 231.952 178.67 231.776 179.438 231.776C180.227 231.776 180.899 231.952 181.454 232.304C182.009 232.656 182.43 233.115 182.718 233.68C183.017 234.245 183.166 234.869 183.166 235.552C183.166 235.659 183.166 235.771 183.166 235.888C183.166 236.005 183.161 236.139 183.15 236.288H176.526V235.248H181.838C181.806 234.512 181.561 233.941 181.102 233.536C180.654 233.12 180.089 232.912 179.406 232.912C178.958 232.912 178.537 233.019 178.142 233.232C177.747 233.435 177.427 233.733 177.182 234.128C176.947 234.523 176.83 235.019 176.83 235.616V236.064C176.83 236.725 176.953 237.28 177.198 237.728C177.443 238.165 177.758 238.496 178.142 238.72C178.537 238.944 178.958 239.056 179.406 239.056C179.971 239.056 180.435 238.933 180.798 238.688C181.171 238.432 181.443 238.085 181.614 237.648H182.942C182.803 238.139 182.574 238.576 182.254 238.96C181.934 239.333 181.534 239.632 181.054 239.856C180.585 240.08 180.035 240.192 179.406 240.192ZM188.5 240.192C187.753 240.192 187.086 240.016 186.5 239.664C185.913 239.312 185.449 238.821 185.108 238.192C184.777 237.563 184.612 236.827 184.612 235.984C184.612 235.131 184.777 234.395 185.108 233.776C185.438 233.147 185.897 232.656 186.484 232.304C187.081 231.952 187.764 231.776 188.532 231.776C189.321 231.776 189.993 231.952 190.548 232.304C191.102 232.656 191.524 233.115 191.812 233.68C192.11 234.245 192.26 234.869 192.26 235.552C192.26 235.659 192.26 235.771 192.26 235.888C192.26 236.005 192.254 236.139 192.244 236.288H185.62V235.248H190.932C190.9 234.512 190.654 233.941 190.196 233.536C189.748 233.12 189.182 232.912 188.5 232.912C188.052 232.912 187.63 233.019 187.236 233.232C186.841 233.435 186.521 233.733 186.276 234.128C186.041 234.523 185.924 235.019 185.924 235.616V236.064C185.924 236.725 186.046 237.28 186.292 237.728C186.537 238.165 186.852 238.496 187.236 238.72C187.63 238.944 188.052 239.056 188.5 239.056C189.065 239.056 189.529 238.933 189.892 238.688C190.265 238.432 190.537 238.085 190.708 237.648H192.036C191.897 238.139 191.668 238.576 191.348 238.96C191.028 239.333 190.628 239.632 190.148 239.856C189.678 240.08 189.129 240.192 188.5 240.192ZM196.944 240C196.464 240 196.048 239.925 195.696 239.776C195.344 239.627 195.072 239.376 194.88 239.024C194.699 238.661 194.608 238.176 194.608 237.568V233.104H193.216V231.968H194.608L194.784 230.032H195.952V231.968H198.304V233.104H195.952V237.568C195.952 238.069 196.053 238.411 196.256 238.592C196.459 238.763 196.816 238.848 197.328 238.848H198.192V240H196.944ZM199.814 241.968L200.742 238.432H202.134L200.742 241.968H199.814ZM208.091 240V228.8H209.435V238.928H214.651V240H208.091ZM219.345 240.192C218.726 240.192 218.182 240.069 217.713 239.824C217.254 239.579 216.897 239.2 216.641 238.688C216.395 238.176 216.273 237.531 216.273 236.752V231.968H217.617V236.608C217.617 237.419 217.793 238.027 218.145 238.432C218.497 238.837 218.998 239.04 219.649 239.04C220.097 239.04 220.502 238.933 220.865 238.72C221.227 238.496 221.51 238.176 221.713 237.76C221.926 237.344 222.033 236.837 222.033 236.24V231.968H223.377V240H222.161L222.081 238.592C221.825 239.093 221.457 239.488 220.977 239.776C220.497 240.053 219.953 240.192 219.345 240.192ZM224.804 240L227.54 235.984L224.804 231.968H226.26L228.452 235.264L230.676 231.968H232.116L229.38 235.984L232.116 240H230.676L228.452 236.688L226.26 240H224.804ZM236.814 240.192C236.067 240.192 235.395 240.021 234.798 239.68C234.2 239.328 233.726 238.837 233.374 238.208C233.032 237.579 232.862 236.837 232.862 235.984C232.862 235.131 233.038 234.389 233.39 233.76C233.742 233.131 234.216 232.645 234.814 232.304C235.422 231.952 236.099 231.776 236.846 231.776C237.603 231.776 238.28 231.952 238.878 232.304C239.475 232.645 239.944 233.131 240.286 233.76C240.627 234.389 240.798 235.131 240.798 235.984C240.798 236.837 240.622 237.579 240.27 238.208C239.928 238.837 239.454 239.328 238.846 239.68C238.248 240.021 237.571 240.192 236.814 240.192ZM236.814 239.04C237.283 239.04 237.715 238.928 238.11 238.704C238.504 238.469 238.819 238.128 239.054 237.68C239.299 237.221 239.422 236.656 239.422 235.984C239.422 235.301 239.304 234.736 239.07 234.288C238.835 233.84 238.52 233.504 238.126 233.28C237.731 233.045 237.304 232.928 236.846 232.928C236.398 232.928 235.971 233.045 235.566 233.28C235.171 233.504 234.851 233.84 234.606 234.288C234.36 234.736 234.238 235.301 234.238 235.984C234.238 236.656 234.36 237.221 234.606 237.68C234.851 238.128 235.166 238.469 235.55 238.704C235.944 238.928 236.366 239.04 236.814 239.04ZM242.682 240V231.968H243.898L244.01 233.504C244.191 233.141 244.421 232.832 244.698 232.576C244.986 232.32 245.327 232.123 245.722 231.984C246.117 231.845 246.565 231.776 247.066 231.776V233.184H246.602C246.261 233.184 245.935 233.232 245.626 233.328C245.317 233.413 245.039 233.557 244.794 233.76C244.559 233.952 244.373 234.224 244.234 234.576C244.095 234.928 244.026 235.36 244.026 235.872V240H242.682ZM247.033 241.968L247.961 238.432H249.353L247.961 241.968H247.033ZM255.309 240V228.8H262.237V229.904H256.653V233.808H261.757V234.896H256.653V238.896H262.237V240H255.309ZM267.444 243.712C266.719 243.712 266.079 243.616 265.524 243.424C264.97 243.243 264.538 242.96 264.228 242.576C263.919 242.192 263.764 241.717 263.764 241.152C263.764 240.907 263.812 240.645 263.908 240.368C264.015 240.101 264.191 239.835 264.436 239.568C264.692 239.301 265.05 239.061 265.508 238.848L266.42 239.392C265.866 239.627 265.503 239.893 265.332 240.192C265.162 240.491 265.076 240.768 265.076 241.024C265.076 241.376 265.178 241.669 265.38 241.904C265.583 242.139 265.86 242.315 266.212 242.432C266.575 242.549 266.986 242.608 267.444 242.608C267.903 242.608 268.298 242.539 268.628 242.4C268.959 242.272 269.215 242.091 269.396 241.856C269.578 241.632 269.668 241.36 269.668 241.04C269.668 240.677 269.53 240.368 269.252 240.112C268.975 239.867 268.452 239.723 267.684 239.68C267.044 239.637 266.511 239.579 266.084 239.504C265.668 239.429 265.322 239.344 265.044 239.248C264.767 239.141 264.532 239.024 264.34 238.896C264.159 238.768 263.994 238.635 263.844 238.496V238.128L265.396 236.576L266.564 236.992L264.964 238.448L265.172 237.888C265.29 237.973 265.402 238.053 265.508 238.128C265.615 238.192 265.759 238.251 265.94 238.304C266.122 238.357 266.372 238.411 266.692 238.464C267.012 238.507 267.444 238.549 267.988 238.592C268.714 238.645 269.295 238.773 269.732 238.976C270.18 239.179 270.5 239.451 270.692 239.792C270.895 240.133 270.996 240.533 270.996 240.992C270.996 241.451 270.868 241.883 270.612 242.288C270.367 242.704 269.983 243.045 269.46 243.312C268.938 243.579 268.266 243.712 267.444 243.712ZM267.428 237.472C266.756 237.472 266.186 237.349 265.716 237.104C265.247 236.848 264.89 236.507 264.644 236.08C264.399 235.643 264.276 235.157 264.276 234.624C264.276 234.091 264.399 233.611 264.644 233.184C264.89 232.757 265.247 232.416 265.716 232.16C266.186 231.904 266.756 231.776 267.428 231.776C268.111 231.776 268.687 231.904 269.156 232.16C269.626 232.416 269.983 232.757 270.228 233.184C270.474 233.611 270.596 234.091 270.596 234.624C270.596 235.157 270.474 235.643 270.228 236.08C269.983 236.507 269.626 236.848 269.156 237.104C268.687 237.349 268.111 237.472 267.428 237.472ZM267.428 236.368C268.004 236.368 268.458 236.224 268.788 235.936C269.13 235.637 269.3 235.2 269.3 234.624C269.3 234.069 269.13 233.643 268.788 233.344C268.458 233.045 268.004 232.896 267.428 232.896C266.863 232.896 266.41 233.045 266.068 233.344C265.727 233.643 265.556 234.069 265.556 234.624C265.556 235.2 265.727 235.637 266.068 235.936C266.41 236.224 266.863 236.368 267.428 236.368ZM268.74 233.104L268.34 231.968H271.636V232.976L268.74 233.104ZM274.047 243.52L276.015 239.104H275.551L272.399 231.968H273.855L276.479 238.096L279.247 231.968H280.639L275.455 243.52H274.047ZM282.057 243.52V231.968H283.273L283.401 233.28C283.572 233.024 283.79 232.784 284.057 232.56C284.324 232.325 284.644 232.139 285.017 232C285.39 231.851 285.822 231.776 286.313 231.776C287.092 231.776 287.769 231.963 288.345 232.336C288.932 232.699 289.385 233.2 289.705 233.84C290.036 234.469 290.201 235.189 290.201 236C290.201 236.811 290.036 237.531 289.705 238.16C289.385 238.789 288.932 239.285 288.345 239.648C287.758 240.011 287.076 240.192 286.297 240.192C285.646 240.192 285.07 240.059 284.569 239.792C284.068 239.525 283.678 239.152 283.401 238.672V243.52H282.057ZM286.137 239.024C286.67 239.024 287.14 238.901 287.545 238.656C287.95 238.4 288.265 238.043 288.489 237.584C288.724 237.125 288.841 236.592 288.841 235.984C288.841 235.376 288.724 234.843 288.489 234.384C288.265 233.925 287.95 233.573 287.545 233.328C287.14 233.072 286.67 232.944 286.137 232.944C285.604 232.944 285.134 233.072 284.729 233.328C284.324 233.573 284.009 233.925 283.785 234.384C283.561 234.843 283.449 235.376 283.449 235.984C283.449 236.592 283.561 237.125 283.785 237.584C284.009 238.043 284.324 238.4 284.729 238.656C285.134 238.901 285.604 239.024 286.137 239.024ZM294.944 240C294.464 240 294.048 239.925 293.696 239.776C293.344 239.627 293.072 239.376 292.88 239.024C292.699 238.661 292.608 238.176 292.608 237.568V233.104H291.216V231.968H292.608L292.784 230.032H293.952V231.968H296.304V233.104H293.952V237.568C293.952 238.069 294.053 238.411 294.256 238.592C294.459 238.763 294.816 238.848 295.328 238.848H296.192V240H294.944Z" fill="#F9F9F7"/>
</svg>
